<mxfile host="app.diagrams.net" agent="Mozilla/5.0 (X11; Linux x86_64; rv:136.0) Gecko/20100101 Firefox/136.0" version="26.1.0">
  <diagram name="Page-1" id="c7488fd3-1785-93aa-aadb-54a6760d102a">
    <mxGraphModel dx="3490" dy="1302" grid="1" gridSize="10" guides="1" tooltips="1" connect="1" arrows="1" fold="1" page="1" pageScale="1" pageWidth="1100" pageHeight="850" background="none" math="0" shadow="0">
      <root>
        <mxCell id="0" />
        <mxCell id="1" parent="0" />
        <mxCell id="2b4e8129b02d487f-1" value="Communication Flow" style="swimlane;html=1;childLayout=stackLayout;horizontal=1;startSize=20;horizontalStack=0;rounded=0;shadow=0;labelBackgroundColor=none;strokeWidth=1;fontFamily=Verdana;fontSize=8;align=center;" parent="1" vertex="1">
          <mxGeometry x="-190" y="10" width="2200" height="2820" as="geometry" />
        </mxCell>
        <mxCell id="snoJyz_RMj4-58Zv0lQL-8" style="edgeStyle=orthogonalEdgeStyle;rounded=0;orthogonalLoop=1;jettySize=auto;html=1;exitX=1;exitY=0.5;exitDx=0;exitDy=0;entryX=0;entryY=0.75;entryDx=0;entryDy=0;" parent="2b4e8129b02d487f-1" source="snoJyz_RMj4-58Zv0lQL-5" target="snoJyz_RMj4-58Zv0lQL-6" edge="1">
          <mxGeometry relative="1" as="geometry">
            <Array as="points">
              <mxPoint x="110" y="580" />
              <mxPoint x="120" y="580" />
              <mxPoint x="120" y="540" />
              <mxPoint x="60" y="540" />
              <mxPoint x="60" y="660" />
            </Array>
          </mxGeometry>
        </mxCell>
        <mxCell id="L5MZphcRV6BKSnFkt7Z3-15" style="edgeStyle=orthogonalEdgeStyle;rounded=0;orthogonalLoop=1;jettySize=auto;html=1;exitX=0.5;exitY=1;exitDx=0;exitDy=0;entryX=0.5;entryY=0;entryDx=0;entryDy=0;" parent="2b4e8129b02d487f-1" source="L5MZphcRV6BKSnFkt7Z3-13" target="L5MZphcRV6BKSnFkt7Z3-4" edge="1">
          <mxGeometry relative="1" as="geometry" />
        </mxCell>
        <mxCell id="L5MZphcRV6BKSnFkt7Z3-48" style="edgeStyle=orthogonalEdgeStyle;rounded=0;orthogonalLoop=1;jettySize=auto;html=1;exitX=0.5;exitY=1;exitDx=0;exitDy=0;entryX=0.5;entryY=0;entryDx=0;entryDy=0;" parent="2b4e8129b02d487f-1" source="L5MZphcRV6BKSnFkt7Z3-46" target="L5MZphcRV6BKSnFkt7Z3-40" edge="1">
          <mxGeometry relative="1" as="geometry" />
        </mxCell>
        <mxCell id="wCeL-XLaS5dmGQZmUb4--1" value="Display Engline" style="swimlane;html=1;startSize=20;horizontal=0;" vertex="1" parent="2b4e8129b02d487f-1">
          <mxGeometry y="20" width="2200" height="750" as="geometry" />
        </mxCell>
        <mxCell id="wCeL-XLaS5dmGQZmUb4--11" style="edgeStyle=orthogonalEdgeStyle;rounded=0;orthogonalLoop=1;jettySize=auto;html=1;exitX=1;exitY=0.5;exitDx=0;exitDy=0;entryX=0;entryY=0.5;entryDx=0;entryDy=0;" edge="1" parent="wCeL-XLaS5dmGQZmUb4--1" source="wCeL-XLaS5dmGQZmUb4--5" target="wCeL-XLaS5dmGQZmUb4--7">
          <mxGeometry relative="1" as="geometry" />
        </mxCell>
        <mxCell id="wCeL-XLaS5dmGQZmUb4--5" value="Change to zero weight state" style="rounded=1;whiteSpace=wrap;html=1;" vertex="1" parent="wCeL-XLaS5dmGQZmUb4--1">
          <mxGeometry x="940" y="40" width="120" height="60" as="geometry" />
        </mxCell>
        <mxCell id="wCeL-XLaS5dmGQZmUb4--12" style="edgeStyle=orthogonalEdgeStyle;rounded=0;orthogonalLoop=1;jettySize=auto;html=1;exitX=1;exitY=0.5;exitDx=0;exitDy=0;entryX=0;entryY=0.5;entryDx=0;entryDy=0;" edge="1" parent="wCeL-XLaS5dmGQZmUb4--1" source="wCeL-XLaS5dmGQZmUb4--7" target="wCeL-XLaS5dmGQZmUb4--9">
          <mxGeometry relative="1" as="geometry" />
        </mxCell>
        <mxCell id="wCeL-XLaS5dmGQZmUb4--14" value="No" style="edgeStyle=orthogonalEdgeStyle;rounded=0;orthogonalLoop=1;jettySize=auto;html=1;" edge="1" parent="wCeL-XLaS5dmGQZmUb4--1" source="wCeL-XLaS5dmGQZmUb4--7" target="wCeL-XLaS5dmGQZmUb4--9">
          <mxGeometry relative="1" as="geometry" />
        </mxCell>
        <mxCell id="wCeL-XLaS5dmGQZmUb4--20" value="Yes" style="edgeStyle=orthogonalEdgeStyle;rounded=0;orthogonalLoop=1;jettySize=auto;html=1;exitX=0.5;exitY=1;exitDx=0;exitDy=0;entryX=0.5;entryY=0;entryDx=0;entryDy=0;" edge="1" parent="wCeL-XLaS5dmGQZmUb4--1" source="wCeL-XLaS5dmGQZmUb4--7" target="wCeL-XLaS5dmGQZmUb4--17">
          <mxGeometry relative="1" as="geometry" />
        </mxCell>
        <mxCell id="wCeL-XLaS5dmGQZmUb4--7" value="User chose retry?" style="rhombus;whiteSpace=wrap;html=1;" vertex="1" parent="wCeL-XLaS5dmGQZmUb4--1">
          <mxGeometry x="1115" y="30" width="130" height="80" as="geometry" />
        </mxCell>
        <mxCell id="wCeL-XLaS5dmGQZmUb4--15" value="No" style="edgeStyle=orthogonalEdgeStyle;rounded=0;orthogonalLoop=1;jettySize=auto;html=1;exitX=0.5;exitY=0;exitDx=0;exitDy=0;entryX=0.5;entryY=0;entryDx=0;entryDy=0;" edge="1" parent="wCeL-XLaS5dmGQZmUb4--1" source="wCeL-XLaS5dmGQZmUb4--10" target="wCeL-XLaS5dmGQZmUb4--7">
          <mxGeometry relative="1" as="geometry" />
        </mxCell>
        <mxCell id="wCeL-XLaS5dmGQZmUb4--29" value="Yes" style="edgeStyle=orthogonalEdgeStyle;rounded=0;orthogonalLoop=1;jettySize=auto;html=1;exitX=0.5;exitY=1;exitDx=0;exitDy=0;entryX=0.5;entryY=0;entryDx=0;entryDy=0;" edge="1" parent="wCeL-XLaS5dmGQZmUb4--1" source="wCeL-XLaS5dmGQZmUb4--10" target="wCeL-XLaS5dmGQZmUb4--27">
          <mxGeometry relative="1" as="geometry" />
        </mxCell>
        <mxCell id="wCeL-XLaS5dmGQZmUb4--10" value="User chose cancel?" style="rhombus;whiteSpace=wrap;html=1;" vertex="1" parent="wCeL-XLaS5dmGQZmUb4--1">
          <mxGeometry x="1550" y="30" width="150" height="80" as="geometry" />
        </mxCell>
        <mxCell id="wCeL-XLaS5dmGQZmUb4--13" value="No" style="edgeStyle=orthogonalEdgeStyle;rounded=0;orthogonalLoop=1;jettySize=auto;html=1;exitX=1;exitY=0.5;exitDx=0;exitDy=0;entryX=0;entryY=0.5;entryDx=0;entryDy=0;" edge="1" parent="wCeL-XLaS5dmGQZmUb4--1" source="wCeL-XLaS5dmGQZmUb4--9" target="wCeL-XLaS5dmGQZmUb4--10">
          <mxGeometry relative="1" as="geometry" />
        </mxCell>
        <mxCell id="wCeL-XLaS5dmGQZmUb4--28" value="Yes" style="edgeStyle=orthogonalEdgeStyle;rounded=0;orthogonalLoop=1;jettySize=auto;html=1;exitX=0.5;exitY=1;exitDx=0;exitDy=0;entryX=0.5;entryY=0;entryDx=0;entryDy=0;" edge="1" parent="wCeL-XLaS5dmGQZmUb4--1" source="wCeL-XLaS5dmGQZmUb4--9" target="wCeL-XLaS5dmGQZmUb4--26">
          <mxGeometry relative="1" as="geometry" />
        </mxCell>
        <mxCell id="wCeL-XLaS5dmGQZmUb4--9" value="User chose override?" style="rhombus;whiteSpace=wrap;html=1;" vertex="1" parent="wCeL-XLaS5dmGQZmUb4--1">
          <mxGeometry x="1320" y="30" width="160" height="80" as="geometry" />
        </mxCell>
        <mxCell id="wCeL-XLaS5dmGQZmUb4--79" style="edgeStyle=orthogonalEdgeStyle;rounded=0;orthogonalLoop=1;jettySize=auto;html=1;exitX=0.5;exitY=1;exitDx=0;exitDy=0;entryX=0.5;entryY=0;entryDx=0;entryDy=0;" edge="1" parent="wCeL-XLaS5dmGQZmUb4--1" source="wCeL-XLaS5dmGQZmUb4--17" target="wCeL-XLaS5dmGQZmUb4--78">
          <mxGeometry relative="1" as="geometry" />
        </mxCell>
        <mxCell id="wCeL-XLaS5dmGQZmUb4--17" value="RETRY" style="shape=parallelogram;html=1;strokeWidth=2;perimeter=parallelogramPerimeter;whiteSpace=wrap;rounded=1;arcSize=12;size=0.23;" vertex="1" parent="wCeL-XLaS5dmGQZmUb4--1">
          <mxGeometry x="1130" y="310" width="100" height="60" as="geometry" />
        </mxCell>
        <mxCell id="wCeL-XLaS5dmGQZmUb4--80" style="edgeStyle=orthogonalEdgeStyle;rounded=0;orthogonalLoop=1;jettySize=auto;html=1;exitX=0.5;exitY=1;exitDx=0;exitDy=0;entryX=0.5;entryY=0;entryDx=0;entryDy=0;" edge="1" parent="wCeL-XLaS5dmGQZmUb4--1" source="wCeL-XLaS5dmGQZmUb4--18" target="wCeL-XLaS5dmGQZmUb4--78">
          <mxGeometry relative="1" as="geometry" />
        </mxCell>
        <mxCell id="wCeL-XLaS5dmGQZmUb4--18" value="OVERRIDE" style="shape=parallelogram;html=1;strokeWidth=2;perimeter=parallelogramPerimeter;whiteSpace=wrap;rounded=1;arcSize=12;size=0.23;" vertex="1" parent="wCeL-XLaS5dmGQZmUb4--1">
          <mxGeometry x="1350" y="310" width="100" height="60" as="geometry" />
        </mxCell>
        <mxCell id="wCeL-XLaS5dmGQZmUb4--81" style="edgeStyle=orthogonalEdgeStyle;rounded=0;orthogonalLoop=1;jettySize=auto;html=1;exitX=0.5;exitY=1;exitDx=0;exitDy=0;entryX=0.5;entryY=0;entryDx=0;entryDy=0;" edge="1" parent="wCeL-XLaS5dmGQZmUb4--1" source="wCeL-XLaS5dmGQZmUb4--19" target="wCeL-XLaS5dmGQZmUb4--78">
          <mxGeometry relative="1" as="geometry" />
        </mxCell>
        <mxCell id="wCeL-XLaS5dmGQZmUb4--19" value="CANCEL" style="shape=parallelogram;html=1;strokeWidth=2;perimeter=parallelogramPerimeter;whiteSpace=wrap;rounded=1;arcSize=12;size=0.23;" vertex="1" parent="wCeL-XLaS5dmGQZmUb4--1">
          <mxGeometry x="1575" y="310" width="100" height="60" as="geometry" />
        </mxCell>
        <mxCell id="wCeL-XLaS5dmGQZmUb4--30" style="edgeStyle=orthogonalEdgeStyle;rounded=0;orthogonalLoop=1;jettySize=auto;html=1;exitX=0.5;exitY=1;exitDx=0;exitDy=0;entryX=0.5;entryY=0;entryDx=0;entryDy=0;" edge="1" parent="wCeL-XLaS5dmGQZmUb4--1" source="wCeL-XLaS5dmGQZmUb4--26" target="wCeL-XLaS5dmGQZmUb4--18">
          <mxGeometry relative="1" as="geometry" />
        </mxCell>
        <mxCell id="wCeL-XLaS5dmGQZmUb4--26" value="Switch to scanning state" style="rounded=1;whiteSpace=wrap;html=1;" vertex="1" parent="wCeL-XLaS5dmGQZmUb4--1">
          <mxGeometry x="1340" y="195" width="120" height="60" as="geometry" />
        </mxCell>
        <mxCell id="wCeL-XLaS5dmGQZmUb4--31" style="edgeStyle=orthogonalEdgeStyle;rounded=0;orthogonalLoop=1;jettySize=auto;html=1;exitX=0.5;exitY=1;exitDx=0;exitDy=0;entryX=0.5;entryY=0;entryDx=0;entryDy=0;" edge="1" parent="wCeL-XLaS5dmGQZmUb4--1" source="wCeL-XLaS5dmGQZmUb4--27" target="wCeL-XLaS5dmGQZmUb4--19">
          <mxGeometry relative="1" as="geometry" />
        </mxCell>
        <mxCell id="wCeL-XLaS5dmGQZmUb4--27" value="Switch to item list state" style="rounded=1;whiteSpace=wrap;html=1;" vertex="1" parent="wCeL-XLaS5dmGQZmUb4--1">
          <mxGeometry x="1565" y="195" width="120" height="60" as="geometry" />
        </mxCell>
        <mxCell id="wCeL-XLaS5dmGQZmUb4--51" value="START_SCAN" style="shape=parallelogram;html=1;strokeWidth=2;perimeter=parallelogramPerimeter;whiteSpace=wrap;rounded=1;arcSize=12;size=0.23;" vertex="1" parent="wCeL-XLaS5dmGQZmUb4--1">
          <mxGeometry x="185" y="310" width="130" height="60" as="geometry" />
        </mxCell>
        <mxCell id="wCeL-XLaS5dmGQZmUb4--54" value="Await response from display" style="rounded=1;whiteSpace=wrap;html=1;" vertex="1" parent="wCeL-XLaS5dmGQZmUb4--1">
          <mxGeometry x="410" y="90" width="120" height="60" as="geometry" />
        </mxCell>
        <mxCell id="wCeL-XLaS5dmGQZmUb4--56" style="edgeStyle=orthogonalEdgeStyle;rounded=0;orthogonalLoop=1;jettySize=auto;html=1;exitX=0.5;exitY=1;exitDx=0;exitDy=0;entryX=0.5;entryY=0;entryDx=0;entryDy=0;" edge="1" parent="wCeL-XLaS5dmGQZmUb4--1" source="wCeL-XLaS5dmGQZmUb4--55" target="wCeL-XLaS5dmGQZmUb4--51">
          <mxGeometry relative="1" as="geometry" />
        </mxCell>
        <mxCell id="wCeL-XLaS5dmGQZmUb4--57" style="edgeStyle=orthogonalEdgeStyle;rounded=0;orthogonalLoop=1;jettySize=auto;html=1;exitX=1;exitY=0.5;exitDx=0;exitDy=0;entryX=0;entryY=0.5;entryDx=0;entryDy=0;" edge="1" parent="wCeL-XLaS5dmGQZmUb4--1" source="wCeL-XLaS5dmGQZmUb4--55" target="wCeL-XLaS5dmGQZmUb4--54">
          <mxGeometry relative="1" as="geometry" />
        </mxCell>
        <mxCell id="wCeL-XLaS5dmGQZmUb4--55" value="New scan button pressed" style="rounded=1;whiteSpace=wrap;html=1;" vertex="1" parent="wCeL-XLaS5dmGQZmUb4--1">
          <mxGeometry x="190" y="90" width="120" height="60" as="geometry" />
        </mxCell>
        <mxCell id="wCeL-XLaS5dmGQZmUb4--66" value="Yes" style="edgeStyle=orthogonalEdgeStyle;rounded=0;orthogonalLoop=1;jettySize=auto;html=1;exitX=0.5;exitY=0;exitDx=0;exitDy=0;exitPerimeter=0;" edge="1" parent="wCeL-XLaS5dmGQZmUb4--1" source="wCeL-XLaS5dmGQZmUb4--65">
          <mxGeometry relative="1" as="geometry">
            <mxPoint x="370" y="30" as="targetPoint" />
          </mxGeometry>
        </mxCell>
        <mxCell id="wCeL-XLaS5dmGQZmUb4--65" value="AFFIRMATIVE?" style="strokeWidth=2;html=1;shape=mxgraph.flowchart.decision;whiteSpace=wrap;" vertex="1" parent="wCeL-XLaS5dmGQZmUb4--1">
          <mxGeometry x="610" y="70" width="120" height="100" as="geometry" />
        </mxCell>
        <mxCell id="wCeL-XLaS5dmGQZmUb4--67" style="edgeStyle=orthogonalEdgeStyle;rounded=0;orthogonalLoop=1;jettySize=auto;html=1;exitX=1;exitY=0.5;exitDx=0;exitDy=0;entryX=0;entryY=0.5;entryDx=0;entryDy=0;entryPerimeter=0;" edge="1" parent="wCeL-XLaS5dmGQZmUb4--1" source="wCeL-XLaS5dmGQZmUb4--54" target="wCeL-XLaS5dmGQZmUb4--65">
          <mxGeometry relative="1" as="geometry" />
        </mxCell>
        <mxCell id="wCeL-XLaS5dmGQZmUb4--68" value="Invalid response from display" style="strokeWidth=2;html=1;shape=mxgraph.flowchart.terminator;whiteSpace=wrap;" vertex="1" parent="wCeL-XLaS5dmGQZmUb4--1">
          <mxGeometry x="770" y="230" width="100" height="60" as="geometry" />
        </mxCell>
        <mxCell id="wCeL-XLaS5dmGQZmUb4--70" value="Yes" style="edgeStyle=orthogonalEdgeStyle;rounded=0;orthogonalLoop=1;jettySize=auto;html=1;exitX=0.5;exitY=0;exitDx=0;exitDy=0;exitPerimeter=0;entryX=0.25;entryY=0;entryDx=0;entryDy=0;" edge="1" parent="wCeL-XLaS5dmGQZmUb4--1" source="wCeL-XLaS5dmGQZmUb4--69" target="wCeL-XLaS5dmGQZmUb4--5">
          <mxGeometry relative="1" as="geometry" />
        </mxCell>
        <mxCell id="wCeL-XLaS5dmGQZmUb4--69" value="ZERO_WEIGHT" style="strokeWidth=2;html=1;shape=mxgraph.flowchart.decision;whiteSpace=wrap;" vertex="1" parent="wCeL-XLaS5dmGQZmUb4--1">
          <mxGeometry x="790" y="70" width="130" height="100" as="geometry" />
        </mxCell>
        <mxCell id="wCeL-XLaS5dmGQZmUb4--71" value="No" style="edgeStyle=orthogonalEdgeStyle;rounded=0;orthogonalLoop=1;jettySize=auto;html=1;exitX=1;exitY=0.5;exitDx=0;exitDy=0;exitPerimeter=0;entryX=0;entryY=0.5;entryDx=0;entryDy=0;entryPerimeter=0;" edge="1" parent="wCeL-XLaS5dmGQZmUb4--1" source="wCeL-XLaS5dmGQZmUb4--65" target="wCeL-XLaS5dmGQZmUb4--69">
          <mxGeometry relative="1" as="geometry" />
        </mxCell>
        <mxCell id="wCeL-XLaS5dmGQZmUb4--72" value="No" style="edgeStyle=orthogonalEdgeStyle;rounded=0;orthogonalLoop=1;jettySize=auto;html=1;exitX=0.5;exitY=1;exitDx=0;exitDy=0;exitPerimeter=0;entryX=0.5;entryY=0;entryDx=0;entryDy=0;entryPerimeter=0;" edge="1" parent="wCeL-XLaS5dmGQZmUb4--1" source="wCeL-XLaS5dmGQZmUb4--69" target="wCeL-XLaS5dmGQZmUb4--68">
          <mxGeometry relative="1" as="geometry" />
        </mxCell>
        <mxCell id="wCeL-XLaS5dmGQZmUb4--78" value="Send user&#39;s zero weight choice to display" style="rounded=1;whiteSpace=wrap;html=1;" vertex="1" parent="wCeL-XLaS5dmGQZmUb4--1">
          <mxGeometry x="1120" y="480" width="120" height="60" as="geometry" />
        </mxCell>
        <mxCell id="wCeL-XLaS5dmGQZmUb4--83" value="AFFIRMATIVE?" style="strokeWidth=2;html=1;shape=mxgraph.flowchart.decision;whiteSpace=wrap;" vertex="1" parent="wCeL-XLaS5dmGQZmUb4--1">
          <mxGeometry x="1310" y="520" width="100" height="100" as="geometry" />
        </mxCell>
        <mxCell id="wCeL-XLaS5dmGQZmUb4--85" style="edgeStyle=orthogonalEdgeStyle;rounded=0;orthogonalLoop=1;jettySize=auto;html=1;exitX=1;exitY=0.5;exitDx=0;exitDy=0;entryX=0;entryY=0.5;entryDx=0;entryDy=0;entryPerimeter=0;" edge="1" parent="wCeL-XLaS5dmGQZmUb4--1" source="wCeL-XLaS5dmGQZmUb4--78" target="wCeL-XLaS5dmGQZmUb4--83">
          <mxGeometry relative="1" as="geometry" />
        </mxCell>
        <mxCell id="wCeL-XLaS5dmGQZmUb4--90" value="&lt;div&gt;Invalid response from display after&lt;/div&gt;&lt;div&gt;&amp;nbsp;sending user response to zero weight&lt;/div&gt;" style="strokeWidth=2;html=1;shape=mxgraph.flowchart.terminator;whiteSpace=wrap;" vertex="1" parent="wCeL-XLaS5dmGQZmUb4--1">
          <mxGeometry x="1480" y="540" width="260" height="60" as="geometry" />
        </mxCell>
        <mxCell id="wCeL-XLaS5dmGQZmUb4--91" value="No" style="edgeStyle=orthogonalEdgeStyle;rounded=0;orthogonalLoop=1;jettySize=auto;html=1;exitX=1;exitY=0.5;exitDx=0;exitDy=0;exitPerimeter=0;entryX=0;entryY=0.5;entryDx=0;entryDy=0;entryPerimeter=0;" edge="1" parent="wCeL-XLaS5dmGQZmUb4--1" source="wCeL-XLaS5dmGQZmUb4--83" target="wCeL-XLaS5dmGQZmUb4--90">
          <mxGeometry relative="1" as="geometry" />
        </mxCell>
        <mxCell id="wCeL-XLaS5dmGQZmUb4--97" style="edgeStyle=orthogonalEdgeStyle;rounded=0;orthogonalLoop=1;jettySize=auto;html=1;exitX=0;exitY=0.5;exitDx=0;exitDy=0;exitPerimeter=0;entryX=1;entryY=0.5;entryDx=0;entryDy=0;" edge="1" parent="wCeL-XLaS5dmGQZmUb4--1" source="wCeL-XLaS5dmGQZmUb4--93" target="wCeL-XLaS5dmGQZmUb4--51">
          <mxGeometry relative="1" as="geometry" />
        </mxCell>
        <mxCell id="wCeL-XLaS5dmGQZmUb4--93" value="In zero weight state?" style="strokeWidth=2;html=1;shape=mxgraph.flowchart.decision;whiteSpace=wrap;" vertex="1" parent="wCeL-XLaS5dmGQZmUb4--1">
          <mxGeometry x="800" y="320" width="160" height="100" as="geometry" />
        </mxCell>
        <mxCell id="wCeL-XLaS5dmGQZmUb4--94" value="" style="edgeStyle=orthogonalEdgeStyle;rounded=0;orthogonalLoop=1;jettySize=auto;html=1;exitX=0.5;exitY=0;exitDx=0;exitDy=0;exitPerimeter=0;entryX=1;entryY=0.5;entryDx=0;entryDy=0;entryPerimeter=0;" edge="1" parent="wCeL-XLaS5dmGQZmUb4--1" source="wCeL-XLaS5dmGQZmUb4--83" target="wCeL-XLaS5dmGQZmUb4--93">
          <mxGeometry relative="1" as="geometry">
            <Array as="points">
              <mxPoint x="1360" y="460" />
              <mxPoint x="1010" y="460" />
              <mxPoint x="1010" y="370" />
            </Array>
          </mxGeometry>
        </mxCell>
        <mxCell id="wCeL-XLaS5dmGQZmUb4--95" value="Yes" style="edgeLabel;html=1;align=center;verticalAlign=middle;resizable=0;points=[];" vertex="1" connectable="0" parent="wCeL-XLaS5dmGQZmUb4--94">
          <mxGeometry x="-0.5829" y="3" relative="1" as="geometry">
            <mxPoint as="offset" />
          </mxGeometry>
        </mxCell>
        <mxCell id="wCeL-XLaS5dmGQZmUb4--96" value="Yes" style="edgeLabel;html=1;align=center;verticalAlign=middle;resizable=0;points=[];" vertex="1" connectable="0" parent="wCeL-XLaS5dmGQZmUb4--94">
          <mxGeometry x="0.6945" y="-1" relative="1" as="geometry">
            <mxPoint as="offset" />
          </mxGeometry>
        </mxCell>
        <mxCell id="2b4e8129b02d487f-2" value="Display" style="swimlane;html=1;startSize=20;horizontal=0;" parent="2b4e8129b02d487f-1" vertex="1">
          <mxGeometry y="770" width="2200" height="450" as="geometry" />
        </mxCell>
        <mxCell id="snoJyz_RMj4-58Zv0lQL-7" value="" style="edgeStyle=orthogonalEdgeStyle;rounded=0;orthogonalLoop=1;jettySize=auto;html=1;" parent="2b4e8129b02d487f-2" source="snoJyz_RMj4-58Zv0lQL-3" target="snoJyz_RMj4-58Zv0lQL-6" edge="1">
          <mxGeometry relative="1" as="geometry" />
        </mxCell>
        <mxCell id="snoJyz_RMj4-58Zv0lQL-3" value="Touch Input" style="rounded=1;whiteSpace=wrap;html=1;" parent="2b4e8129b02d487f-2" vertex="1">
          <mxGeometry x="20" y="30" width="80" height="40" as="geometry" />
        </mxCell>
        <mxCell id="snoJyz_RMj4-58Zv0lQL-6" value="Wake-Up Screen" style="rounded=1;whiteSpace=wrap;html=1;" parent="2b4e8129b02d487f-2" vertex="1">
          <mxGeometry x="60" y="225" width="80" height="40" as="geometry" />
        </mxCell>
        <mxCell id="L5MZphcRV6BKSnFkt7Z3-13" value="START_SCAN" style="shape=parallelogram;html=1;strokeWidth=2;perimeter=parallelogramPerimeter;whiteSpace=wrap;rounded=1;arcSize=12;size=0.23;" parent="2b4e8129b02d487f-2" vertex="1">
          <mxGeometry x="185" y="365" width="130" height="60" as="geometry" />
        </mxCell>
        <mxCell id="L5MZphcRV6BKSnFkt7Z3-20" style="edgeStyle=orthogonalEdgeStyle;rounded=0;orthogonalLoop=1;jettySize=auto;html=1;exitX=0.5;exitY=1;exitDx=0;exitDy=0;entryX=0.5;entryY=0;entryDx=0;entryDy=0;" parent="2b4e8129b02d487f-2" source="L5MZphcRV6BKSnFkt7Z3-18" target="L5MZphcRV6BKSnFkt7Z3-13" edge="1">
          <mxGeometry relative="1" as="geometry" />
        </mxCell>
        <mxCell id="L5MZphcRV6BKSnFkt7Z3-22" style="edgeStyle=orthogonalEdgeStyle;rounded=0;orthogonalLoop=1;jettySize=auto;html=1;exitX=1;exitY=0.5;exitDx=0;exitDy=0;entryX=0;entryY=0.5;entryDx=0;entryDy=0;" parent="2b4e8129b02d487f-2" source="L5MZphcRV6BKSnFkt7Z3-18" target="L5MZphcRV6BKSnFkt7Z3-21" edge="1">
          <mxGeometry relative="1" as="geometry" />
        </mxCell>
        <mxCell id="L5MZphcRV6BKSnFkt7Z3-18" value="Send start scan to hardware" style="rounded=1;whiteSpace=wrap;html=1;" parent="2b4e8129b02d487f-2" vertex="1">
          <mxGeometry x="190" y="195" width="120" height="60" as="geometry" />
        </mxCell>
        <mxCell id="L5MZphcRV6BKSnFkt7Z3-31" style="edgeStyle=orthogonalEdgeStyle;rounded=0;orthogonalLoop=1;jettySize=auto;html=1;exitX=1;exitY=0.5;exitDx=0;exitDy=0;entryX=0;entryY=0.5;entryDx=0;entryDy=0;" parent="2b4e8129b02d487f-2" source="L5MZphcRV6BKSnFkt7Z3-21" target="L5MZphcRV6BKSnFkt7Z3-30" edge="1">
          <mxGeometry relative="1" as="geometry" />
        </mxCell>
        <mxCell id="L5MZphcRV6BKSnFkt7Z3-21" value="Wait for response" style="rounded=1;whiteSpace=wrap;html=1;" parent="2b4e8129b02d487f-2" vertex="1">
          <mxGeometry x="370" y="195" width="120" height="60" as="geometry" />
        </mxCell>
        <mxCell id="L5MZphcRV6BKSnFkt7Z3-35" value="No" style="edgeStyle=orthogonalEdgeStyle;rounded=0;orthogonalLoop=1;jettySize=auto;html=1;exitX=1;exitY=0.5;exitDx=0;exitDy=0;entryX=0;entryY=0.5;entryDx=0;entryDy=0;" parent="2b4e8129b02d487f-2" source="L5MZphcRV6BKSnFkt7Z3-30" target="L5MZphcRV6BKSnFkt7Z3-34" edge="1">
          <mxGeometry relative="1" as="geometry">
            <Array as="points">
              <mxPoint x="940" y="20" />
              <mxPoint x="1920" y="20" />
              <mxPoint x="1920" y="225" />
            </Array>
          </mxGeometry>
        </mxCell>
        <mxCell id="wCeL-XLaS5dmGQZmUb4--2" value="Yes" style="edgeStyle=orthogonalEdgeStyle;rounded=0;orthogonalLoop=1;jettySize=auto;html=1;exitX=0.5;exitY=0;exitDx=0;exitDy=0;entryX=0.5;entryY=1;entryDx=0;entryDy=0;" edge="1" parent="2b4e8129b02d487f-2" source="L5MZphcRV6BKSnFkt7Z3-30" target="wCeL-XLaS5dmGQZmUb4--3">
          <mxGeometry relative="1" as="geometry">
            <mxPoint x="840" y="119.99999999999977" as="targetPoint" />
          </mxGeometry>
        </mxCell>
        <mxCell id="wCeL-XLaS5dmGQZmUb4--60" value="No" style="edgeStyle=orthogonalEdgeStyle;rounded=0;orthogonalLoop=1;jettySize=auto;html=1;exitX=0;exitY=0;exitDx=0;exitDy=0;entryX=0.5;entryY=1;entryDx=0;entryDy=0;" edge="1" parent="2b4e8129b02d487f-2" source="L5MZphcRV6BKSnFkt7Z3-30" target="wCeL-XLaS5dmGQZmUb4--59">
          <mxGeometry relative="1" as="geometry" />
        </mxCell>
        <mxCell id="L5MZphcRV6BKSnFkt7Z3-30" value="Response ZERO_WEIGHT?" style="rhombus;whiteSpace=wrap;html=1;" parent="2b4e8129b02d487f-2" vertex="1">
          <mxGeometry x="740" y="185" width="200" height="80" as="geometry" />
        </mxCell>
        <mxCell id="L5MZphcRV6BKSnFkt7Z3-34" value="Wait for food item from display" style="rounded=1;whiteSpace=wrap;html=1;" parent="2b4e8129b02d487f-2" vertex="1">
          <mxGeometry x="1975" y="195" width="120" height="60" as="geometry" />
        </mxCell>
        <mxCell id="L5MZphcRV6BKSnFkt7Z3-47" style="edgeStyle=orthogonalEdgeStyle;rounded=0;orthogonalLoop=1;jettySize=auto;html=1;exitX=0.5;exitY=1;exitDx=0;exitDy=0;entryX=0.5;entryY=0;entryDx=0;entryDy=0;" parent="2b4e8129b02d487f-2" source="L5MZphcRV6BKSnFkt7Z3-44" target="L5MZphcRV6BKSnFkt7Z3-46" edge="1">
          <mxGeometry relative="1" as="geometry" />
        </mxCell>
        <mxCell id="L5MZphcRV6BKSnFkt7Z3-44" value="Send response from engine to hardware" style="rounded=1;whiteSpace=wrap;html=1;" parent="2b4e8129b02d487f-2" vertex="1">
          <mxGeometry x="990" y="195" width="120" height="60" as="geometry" />
        </mxCell>
        <mxCell id="L5MZphcRV6BKSnFkt7Z3-46" value="Zero weight response" style="shape=parallelogram;html=1;strokeWidth=2;perimeter=parallelogramPerimeter;whiteSpace=wrap;rounded=1;arcSize=12;size=0.23;" parent="2b4e8129b02d487f-2" vertex="1">
          <mxGeometry x="1000" y="365" width="100" height="60" as="geometry" />
        </mxCell>
        <mxCell id="wCeL-XLaS5dmGQZmUb4--38" value="Invalid response from hardware after sending engine response to zero weight" style="strokeWidth=2;html=1;shape=mxgraph.flowchart.terminator;whiteSpace=wrap;" vertex="1" parent="2b4e8129b02d487f-2">
          <mxGeometry x="1400" y="195" width="260" height="60" as="geometry" />
        </mxCell>
        <mxCell id="wCeL-XLaS5dmGQZmUb4--88" style="edgeStyle=orthogonalEdgeStyle;rounded=0;orthogonalLoop=1;jettySize=auto;html=1;exitX=0.5;exitY=0;exitDx=0;exitDy=0;exitPerimeter=0;entryX=0.5;entryY=1;entryDx=0;entryDy=0;" edge="1" parent="2b4e8129b02d487f-2" source="wCeL-XLaS5dmGQZmUb4--49" target="wCeL-XLaS5dmGQZmUb4--87">
          <mxGeometry relative="1" as="geometry" />
        </mxCell>
        <mxCell id="wCeL-XLaS5dmGQZmUb4--49" value="Got AFFIRMATIVE?" style="strokeWidth=2;html=1;shape=mxgraph.flowchart.decision;whiteSpace=wrap;" vertex="1" parent="2b4e8129b02d487f-2">
          <mxGeometry x="1170" y="175" width="150" height="100" as="geometry" />
        </mxCell>
        <mxCell id="wCeL-XLaS5dmGQZmUb4--3" value="ZERO_WEIGHT" style="shape=parallelogram;html=1;strokeWidth=2;perimeter=parallelogramPerimeter;whiteSpace=wrap;rounded=1;arcSize=12;size=0.23;" vertex="1" parent="2b4e8129b02d487f-2">
          <mxGeometry x="770" y="60" width="140" height="60" as="geometry" />
        </mxCell>
        <mxCell id="wCeL-XLaS5dmGQZmUb4--59" value="AFFIRMATIVE" style="shape=parallelogram;html=1;strokeWidth=2;perimeter=parallelogramPerimeter;whiteSpace=wrap;rounded=1;arcSize=12;size=0.23;" vertex="1" parent="2b4e8129b02d487f-2">
          <mxGeometry x="600" y="60" width="130" height="60" as="geometry" />
        </mxCell>
        <mxCell id="wCeL-XLaS5dmGQZmUb4--73" style="edgeStyle=orthogonalEdgeStyle;rounded=0;orthogonalLoop=1;jettySize=auto;html=1;exitX=1;exitY=0.5;exitDx=0;exitDy=0;entryX=0;entryY=0.5;entryDx=0;entryDy=0;entryPerimeter=0;" edge="1" parent="2b4e8129b02d487f-2" source="L5MZphcRV6BKSnFkt7Z3-44" target="wCeL-XLaS5dmGQZmUb4--49">
          <mxGeometry relative="1" as="geometry" />
        </mxCell>
        <mxCell id="wCeL-XLaS5dmGQZmUb4--74" value="No" style="edgeStyle=orthogonalEdgeStyle;rounded=0;orthogonalLoop=1;jettySize=auto;html=1;exitX=1;exitY=0.5;exitDx=0;exitDy=0;exitPerimeter=0;entryX=0;entryY=0.5;entryDx=0;entryDy=0;entryPerimeter=0;" edge="1" parent="2b4e8129b02d487f-2" source="wCeL-XLaS5dmGQZmUb4--49" target="wCeL-XLaS5dmGQZmUb4--38">
          <mxGeometry relative="1" as="geometry" />
        </mxCell>
        <mxCell id="wCeL-XLaS5dmGQZmUb4--87" value="AFFIRMATIVE" style="shape=parallelogram;html=1;strokeWidth=2;perimeter=parallelogramPerimeter;whiteSpace=wrap;rounded=1;arcSize=12;size=0.23;" vertex="1" parent="2b4e8129b02d487f-2">
          <mxGeometry x="1172.5" y="50" width="145" height="60" as="geometry" />
        </mxCell>
        <mxCell id="2b4e8129b02d487f-3" value="Hardware" style="swimlane;html=1;startSize=20;horizontal=0;" parent="2b4e8129b02d487f-1" vertex="1">
          <mxGeometry y="1220" width="2200" height="1600" as="geometry" />
        </mxCell>
        <mxCell id="snoJyz_RMj4-58Zv0lQL-30" value="for i &amp;lt; 8 &amp;amp;&amp;amp; while stopSignal == 0&lt;div style=&quot;forced-color-adjust: none;&quot;&gt;&lt;br&gt;&lt;/div&gt;&lt;div style=&quot;forced-color-adjust: none;&quot;&gt;&lt;br&gt;&lt;/div&gt;&lt;div style=&quot;forced-color-adjust: none;&quot;&gt;&lt;br&gt;&lt;/div&gt;&lt;div style=&quot;forced-color-adjust: none;&quot;&gt;&lt;br&gt;&lt;/div&gt;&lt;div style=&quot;forced-color-adjust: none;&quot;&gt;&lt;br&gt;&lt;/div&gt;&lt;div style=&quot;forced-color-adjust: none;&quot;&gt;&lt;br&gt;&lt;/div&gt;&lt;div style=&quot;forced-color-adjust: none;&quot;&gt;&lt;br&gt;&lt;/div&gt;&lt;div style=&quot;forced-color-adjust: none;&quot;&gt;&lt;br&gt;&lt;/div&gt;&lt;div style=&quot;forced-color-adjust: none;&quot;&gt;&lt;br&gt;&lt;/div&gt;&lt;div style=&quot;forced-color-adjust: none;&quot;&gt;&lt;br&gt;&lt;/div&gt;&lt;div style=&quot;forced-color-adjust: none;&quot;&gt;&lt;br&gt;&lt;/div&gt;&lt;div style=&quot;forced-color-adjust: none;&quot;&gt;&lt;br&gt;&lt;/div&gt;&lt;div style=&quot;forced-color-adjust: none;&quot;&gt;&lt;br&gt;&lt;/div&gt;&lt;div style=&quot;forced-color-adjust: none;&quot;&gt;&lt;br&gt;&lt;/div&gt;&lt;div style=&quot;forced-color-adjust: none;&quot;&gt;&lt;br style=&quot;forced-color-adjust: none;&quot;&gt;&lt;/div&gt;&lt;div style=&quot;forced-color-adjust: none;&quot;&gt;&lt;br style=&quot;forced-color-adjust: none;&quot;&gt;&lt;/div&gt;&lt;div style=&quot;forced-color-adjust: none;&quot;&gt;&lt;br style=&quot;forced-color-adjust: none;&quot;&gt;&lt;/div&gt;&lt;div style=&quot;forced-color-adjust: none;&quot;&gt;&lt;br style=&quot;forced-color-adjust: none;&quot;&gt;&lt;/div&gt;&lt;div style=&quot;forced-color-adjust: none;&quot;&gt;&lt;br style=&quot;forced-color-adjust: none;&quot;&gt;&lt;/div&gt;&lt;div style=&quot;forced-color-adjust: none;&quot;&gt;&lt;br&gt;&lt;/div&gt;" style="shape=loopLimit;whiteSpace=wrap;html=1;" parent="2b4e8129b02d487f-3" vertex="1">
          <mxGeometry x="800" y="580" width="770" height="320" as="geometry" />
        </mxCell>
        <mxCell id="snoJyz_RMj4-58Zv0lQL-5" value="Weight Input&lt;div&gt;(Possibly)&lt;/div&gt;" style="rounded=1;whiteSpace=wrap;html=1;" parent="2b4e8129b02d487f-3" vertex="1">
          <mxGeometry x="30" y="160" width="80" height="40" as="geometry" />
        </mxCell>
        <mxCell id="snoJyz_RMj4-58Zv0lQL-24" value="" style="edgeStyle=orthogonalEdgeStyle;rounded=0;orthogonalLoop=1;jettySize=auto;html=1;" parent="2b4e8129b02d487f-3" source="snoJyz_RMj4-58Zv0lQL-21" target="snoJyz_RMj4-58Zv0lQL-22" edge="1">
          <mxGeometry relative="1" as="geometry" />
        </mxCell>
        <mxCell id="snoJyz_RMj4-58Zv0lQL-21" value="takePhotos()" style="rounded=1;whiteSpace=wrap;html=1;" parent="2b4e8129b02d487f-3" vertex="1">
          <mxGeometry x="820" y="630" width="80" height="40" as="geometry" />
        </mxCell>
        <mxCell id="snoJyz_RMj4-58Zv0lQL-25" value="" style="edgeStyle=orthogonalEdgeStyle;rounded=0;orthogonalLoop=1;jettySize=auto;html=1;" parent="2b4e8129b02d487f-3" source="snoJyz_RMj4-58Zv0lQL-22" target="snoJyz_RMj4-58Zv0lQL-23" edge="1">
          <mxGeometry relative="1" as="geometry" />
        </mxCell>
        <mxCell id="snoJyz_RMj4-58Zv0lQL-22" value="sendDataToVision()" style="rounded=1;whiteSpace=wrap;html=1;" parent="2b4e8129b02d487f-3" vertex="1">
          <mxGeometry x="920" y="630" width="120" height="40" as="geometry" />
        </mxCell>
        <mxCell id="snoJyz_RMj4-58Zv0lQL-34" value="" style="edgeStyle=orthogonalEdgeStyle;rounded=0;orthogonalLoop=1;jettySize=auto;html=1;" parent="2b4e8129b02d487f-3" source="snoJyz_RMj4-58Zv0lQL-23" target="snoJyz_RMj4-58Zv0lQL-28" edge="1">
          <mxGeometry relative="1" as="geometry" />
        </mxCell>
        <mxCell id="snoJyz_RMj4-58Zv0lQL-23" value="rotatePlatform()" style="rounded=1;whiteSpace=wrap;html=1;" parent="2b4e8129b02d487f-3" vertex="1">
          <mxGeometry x="1060" y="630" width="100" height="40" as="geometry" />
        </mxCell>
        <mxCell id="snoJyz_RMj4-58Zv0lQL-35" value="0" style="edgeStyle=orthogonalEdgeStyle;rounded=0;orthogonalLoop=1;jettySize=auto;html=1;exitX=0.5;exitY=0;exitDx=0;exitDy=0;exitPerimeter=0;entryX=0.5;entryY=0;entryDx=0;entryDy=0;" parent="2b4e8129b02d487f-3" source="snoJyz_RMj4-58Zv0lQL-28" target="snoJyz_RMj4-58Zv0lQL-21" edge="1">
          <mxGeometry x="0.0244" y="-10" relative="1" as="geometry">
            <mxPoint as="offset" />
            <Array as="points">
              <mxPoint x="1230" y="610" />
              <mxPoint x="860" y="610" />
            </Array>
          </mxGeometry>
        </mxCell>
        <mxCell id="snoJyz_RMj4-58Zv0lQL-37" value="1" style="edgeStyle=orthogonalEdgeStyle;rounded=0;orthogonalLoop=1;jettySize=auto;html=1;entryX=0;entryY=0.5;entryDx=0;entryDy=0;entryPerimeter=0;" parent="2b4e8129b02d487f-3" source="snoJyz_RMj4-58Zv0lQL-28" target="snoJyz_RMj4-58Zv0lQL-36" edge="1">
          <mxGeometry relative="1" as="geometry">
            <mxPoint x="790" y="590" as="targetPoint" />
          </mxGeometry>
        </mxCell>
        <mxCell id="snoJyz_RMj4-58Zv0lQL-28" value="signalCheck()" style="strokeWidth=2;html=1;shape=mxgraph.flowchart.decision;whiteSpace=wrap;" parent="2b4e8129b02d487f-3" vertex="1">
          <mxGeometry x="1180" y="630" width="100" height="40" as="geometry" />
        </mxCell>
        <mxCell id="snoJyz_RMj4-58Zv0lQL-36" value="Break/Sleep" style="verticalLabelPosition=bottom;verticalAlign=top;html=1;shape=mxgraph.flowchart.on-page_reference;fillColor=light-dark(#FF3333,var(--ge-dark-color, #121212));" parent="2b4e8129b02d487f-3" vertex="1">
          <mxGeometry x="1910" y="560" width="60" height="60" as="geometry" />
        </mxCell>
        <mxCell id="wfJeZkwtzijaD64bfVtk-24" value="Boolean 0 - continue 1 - stop&lt;div&gt;OR&lt;/div&gt;&lt;div&gt;String &quot;stop&quot; || &quot;continue&quot;&lt;br&gt;&lt;/div&gt;" style="shape=parallelogram;html=1;strokeWidth=2;perimeter=parallelogramPerimeter;whiteSpace=wrap;rounded=1;arcSize=12;size=0.23;" parent="2b4e8129b02d487f-3" vertex="1">
          <mxGeometry x="1000" y="930" width="270" height="60" as="geometry" />
        </mxCell>
        <mxCell id="wfJeZkwtzijaD64bfVtk-25" style="edgeStyle=orthogonalEdgeStyle;rounded=0;orthogonalLoop=1;jettySize=auto;html=1;exitX=0.5;exitY=0;exitDx=0;exitDy=0;entryX=0.5;entryY=1;entryDx=0;entryDy=0;entryPerimeter=0;" parent="2b4e8129b02d487f-3" source="wfJeZkwtzijaD64bfVtk-24" target="snoJyz_RMj4-58Zv0lQL-28" edge="1">
          <mxGeometry relative="1" as="geometry" />
        </mxCell>
        <mxCell id="L5MZphcRV6BKSnFkt7Z3-6" value="No" style="edgeStyle=orthogonalEdgeStyle;rounded=0;orthogonalLoop=1;jettySize=auto;html=1;exitX=0.5;exitY=1;exitDx=0;exitDy=0;entryX=1;entryY=0.5;entryDx=0;entryDy=0;" parent="2b4e8129b02d487f-3" source="L5MZphcRV6BKSnFkt7Z3-4" target="L5MZphcRV6BKSnFkt7Z3-5" edge="1">
          <mxGeometry relative="1" as="geometry" />
        </mxCell>
        <mxCell id="L5MZphcRV6BKSnFkt7Z3-12" value="Yes" style="edgeStyle=orthogonalEdgeStyle;rounded=0;orthogonalLoop=1;jettySize=auto;html=1;exitX=1;exitY=0.5;exitDx=0;exitDy=0;entryX=0;entryY=0.5;entryDx=0;entryDy=0;" parent="2b4e8129b02d487f-3" source="L5MZphcRV6BKSnFkt7Z3-4" target="L5MZphcRV6BKSnFkt7Z3-9" edge="1">
          <mxGeometry relative="1" as="geometry" />
        </mxCell>
        <mxCell id="L5MZphcRV6BKSnFkt7Z3-4" value="Start signal received?" style="rhombus;whiteSpace=wrap;html=1;" parent="2b4e8129b02d487f-3" vertex="1">
          <mxGeometry x="160" y="530" width="180" height="80" as="geometry" />
        </mxCell>
        <mxCell id="L5MZphcRV6BKSnFkt7Z3-7" style="edgeStyle=orthogonalEdgeStyle;rounded=0;orthogonalLoop=1;jettySize=auto;html=1;exitX=0.5;exitY=0;exitDx=0;exitDy=0;entryX=0;entryY=0.5;entryDx=0;entryDy=0;" parent="2b4e8129b02d487f-3" source="L5MZphcRV6BKSnFkt7Z3-5" target="L5MZphcRV6BKSnFkt7Z3-4" edge="1">
          <mxGeometry relative="1" as="geometry" />
        </mxCell>
        <mxCell id="L5MZphcRV6BKSnFkt7Z3-5" value="Delay 500 milliseconds" style="rounded=1;whiteSpace=wrap;html=1;" parent="2b4e8129b02d487f-3" vertex="1">
          <mxGeometry x="70" y="640" width="120" height="60" as="geometry" />
        </mxCell>
        <mxCell id="L5MZphcRV6BKSnFkt7Z3-37" value="Yes" style="edgeStyle=orthogonalEdgeStyle;rounded=0;orthogonalLoop=1;jettySize=auto;html=1;exitX=1;exitY=0.5;exitDx=0;exitDy=0;entryX=0;entryY=0.5;entryDx=0;entryDy=0;" parent="2b4e8129b02d487f-3" source="L5MZphcRV6BKSnFkt7Z3-9" target="snoJyz_RMj4-58Zv0lQL-21" edge="1">
          <mxGeometry relative="1" as="geometry" />
        </mxCell>
        <mxCell id="L5MZphcRV6BKSnFkt7Z3-41" value="No" style="edgeStyle=orthogonalEdgeStyle;rounded=0;orthogonalLoop=1;jettySize=auto;html=1;exitX=1;exitY=0;exitDx=0;exitDy=0;entryX=0;entryY=0.5;entryDx=0;entryDy=0;" parent="2b4e8129b02d487f-3" source="L5MZphcRV6BKSnFkt7Z3-9" target="L5MZphcRV6BKSnFkt7Z3-40" edge="1">
          <mxGeometry relative="1" as="geometry" />
        </mxCell>
        <mxCell id="L5MZphcRV6BKSnFkt7Z3-9" value="Weight on platform?" style="rhombus;whiteSpace=wrap;html=1;" parent="2b4e8129b02d487f-3" vertex="1">
          <mxGeometry x="400" y="530" width="170" height="80" as="geometry" />
        </mxCell>
        <mxCell id="2b4e8129b02d487f-4" value="Vision" style="swimlane;html=1;startSize=20;horizontal=0;" parent="2b4e8129b02d487f-3" vertex="1">
          <mxGeometry x="5" y="1020" width="2190" height="580" as="geometry" />
        </mxCell>
        <mxCell id="wfJeZkwtzijaD64bfVtk-5" style="edgeStyle=orthogonalEdgeStyle;rounded=0;orthogonalLoop=1;jettySize=auto;html=1;exitX=0.5;exitY=1;exitDx=0;exitDy=0;entryX=0.5;entryY=0;entryDx=0;entryDy=0;" parent="2b4e8129b02d487f-4" source="wfJeZkwtzijaD64bfVtk-3" target="wfJeZkwtzijaD64bfVtk-16" edge="1">
          <mxGeometry relative="1" as="geometry">
            <mxPoint x="335" y="165" as="targetPoint" />
          </mxGeometry>
        </mxCell>
        <mxCell id="wfJeZkwtzijaD64bfVtk-3" value="&lt;div&gt;FoodItem {&lt;/div&gt;&lt;div&gt;photoPath,&lt;/div&gt;&lt;div&gt;scanDate,&lt;/div&gt;&lt;div style=&quot;text-align: left;&quot;&gt;weight }&lt;/div&gt;" style="shape=parallelogram;html=1;strokeWidth=2;perimeter=parallelogramPerimeter;whiteSpace=wrap;rounded=1;arcSize=12;size=0.23;" parent="2b4e8129b02d487f-4" vertex="1">
          <mxGeometry x="370" y="90" width="160" height="70" as="geometry" />
        </mxCell>
        <mxCell id="wfJeZkwtzijaD64bfVtk-37" value="No" style="edgeStyle=orthogonalEdgeStyle;rounded=0;orthogonalLoop=1;jettySize=auto;html=1;exitX=1;exitY=0.5;exitDx=0;exitDy=0;entryX=0;entryY=0.5;entryDx=0;entryDy=0;" parent="2b4e8129b02d487f-4" source="wfJeZkwtzijaD64bfVtk-16" target="wfJeZkwtzijaD64bfVtk-36" edge="1">
          <mxGeometry relative="1" as="geometry" />
        </mxCell>
        <mxCell id="wfJeZkwtzijaD64bfVtk-16" value="Iterated through image directory?" style="rhombus;whiteSpace=wrap;html=1;" parent="2b4e8129b02d487f-4" vertex="1">
          <mxGeometry x="190" y="175" width="260" height="80" as="geometry" />
        </mxCell>
        <mxCell id="wfJeZkwtzijaD64bfVtk-21" style="edgeStyle=orthogonalEdgeStyle;rounded=0;orthogonalLoop=1;jettySize=auto;html=1;exitX=0;exitY=0;exitDx=0;exitDy=0;entryX=0;entryY=1;entryDx=0;entryDy=0;" parent="2b4e8129b02d487f-4" source="wfJeZkwtzijaD64bfVtk-16" target="wfJeZkwtzijaD64bfVtk-16" edge="1">
          <mxGeometry relative="1" as="geometry">
            <Array as="points">
              <mxPoint x="255" y="155" />
              <mxPoint x="140" y="155" />
              <mxPoint x="140" y="275" />
              <mxPoint x="255" y="275" />
            </Array>
          </mxGeometry>
        </mxCell>
        <mxCell id="wfJeZkwtzijaD64bfVtk-22" value="Yes" style="edgeLabel;html=1;align=center;verticalAlign=middle;resizable=0;points=[];" parent="wfJeZkwtzijaD64bfVtk-21" vertex="1" connectable="0">
          <mxGeometry x="-0.1323" y="2" relative="1" as="geometry">
            <mxPoint as="offset" />
          </mxGeometry>
        </mxCell>
        <mxCell id="wfJeZkwtzijaD64bfVtk-59" style="edgeStyle=orthogonalEdgeStyle;rounded=0;orthogonalLoop=1;jettySize=auto;html=1;exitX=1;exitY=0.5;exitDx=0;exitDy=0;entryX=0;entryY=0.5;entryDx=0;entryDy=0;" parent="2b4e8129b02d487f-4" source="wfJeZkwtzijaD64bfVtk-23" target="wfJeZkwtzijaD64bfVtk-58" edge="1">
          <mxGeometry relative="1" as="geometry" />
        </mxCell>
        <mxCell id="wfJeZkwtzijaD64bfVtk-23" value="Send stop signal" style="rounded=1;whiteSpace=wrap;html=1;" parent="2b4e8129b02d487f-4" vertex="1">
          <mxGeometry x="1880" y="185" width="120" height="60" as="geometry" />
        </mxCell>
        <mxCell id="wfJeZkwtzijaD64bfVtk-34" style="edgeStyle=orthogonalEdgeStyle;rounded=0;orthogonalLoop=1;jettySize=auto;html=1;exitX=1;exitY=0.5;exitDx=0;exitDy=0;entryX=0;entryY=0.5;entryDx=0;entryDy=0;" parent="2b4e8129b02d487f-4" source="wfJeZkwtzijaD64bfVtk-32" target="wfJeZkwtzijaD64bfVtk-33" edge="1">
          <mxGeometry relative="1" as="geometry" />
        </mxCell>
        <mxCell id="wfJeZkwtzijaD64bfVtk-32" value="Run text detection for item name" style="rounded=1;whiteSpace=wrap;html=1;" parent="2b4e8129b02d487f-4" vertex="1">
          <mxGeometry x="890" y="185" width="120" height="60" as="geometry" />
        </mxCell>
        <mxCell id="wfJeZkwtzijaD64bfVtk-39" value="No" style="edgeStyle=orthogonalEdgeStyle;rounded=0;orthogonalLoop=1;jettySize=auto;html=1;exitX=0.5;exitY=1;exitDx=0;exitDy=0;entryX=1;entryY=0.5;entryDx=0;entryDy=0;" parent="2b4e8129b02d487f-4" source="wfJeZkwtzijaD64bfVtk-33" target="wfJeZkwtzijaD64bfVtk-52" edge="1">
          <mxGeometry relative="1" as="geometry">
            <mxPoint x="720" y="270" as="targetPoint" />
            <Array as="points">
              <mxPoint x="1170" y="310" />
              <mxPoint x="830" y="310" />
              <mxPoint x="830" y="340" />
            </Array>
          </mxGeometry>
        </mxCell>
        <mxCell id="wfJeZkwtzijaD64bfVtk-33" value="Text read makes sense" style="rhombus;whiteSpace=wrap;html=1;" parent="2b4e8129b02d487f-4" vertex="1">
          <mxGeometry x="1060" y="175" width="220" height="80" as="geometry" />
        </mxCell>
        <mxCell id="wfJeZkwtzijaD64bfVtk-46" style="edgeStyle=orthogonalEdgeStyle;rounded=0;orthogonalLoop=1;jettySize=auto;html=1;exitX=1;exitY=0.5;exitDx=0;exitDy=0;entryX=0;entryY=0.5;entryDx=0;entryDy=0;" parent="2b4e8129b02d487f-4" source="wfJeZkwtzijaD64bfVtk-36" target="wfJeZkwtzijaD64bfVtk-43" edge="1">
          <mxGeometry relative="1" as="geometry" />
        </mxCell>
        <mxCell id="wfJeZkwtzijaD64bfVtk-36" value="Look at next picture in image directory" style="rounded=1;whiteSpace=wrap;html=1;" parent="2b4e8129b02d487f-4" vertex="1">
          <mxGeometry x="520" y="185" width="120" height="60" as="geometry" />
        </mxCell>
        <mxCell id="wfJeZkwtzijaD64bfVtk-41" value="Yes" style="edgeStyle=orthogonalEdgeStyle;rounded=0;orthogonalLoop=1;jettySize=auto;html=1;exitX=1;exitY=0.5;exitDx=0;exitDy=0;entryX=0;entryY=0.5;entryDx=0;entryDy=0;" parent="2b4e8129b02d487f-4" source="wfJeZkwtzijaD64bfVtk-33" target="wfJeZkwtzijaD64bfVtk-42" edge="1">
          <mxGeometry relative="1" as="geometry">
            <mxPoint x="1430" y="215" as="targetPoint" />
          </mxGeometry>
        </mxCell>
        <mxCell id="wfJeZkwtzijaD64bfVtk-49" style="edgeStyle=orthogonalEdgeStyle;rounded=0;orthogonalLoop=1;jettySize=auto;html=1;exitX=1;exitY=0.5;exitDx=0;exitDy=0;entryX=0;entryY=0.5;entryDx=0;entryDy=0;" parent="2b4e8129b02d487f-4" source="wfJeZkwtzijaD64bfVtk-42" target="wfJeZkwtzijaD64bfVtk-48" edge="1">
          <mxGeometry relative="1" as="geometry" />
        </mxCell>
        <mxCell id="wfJeZkwtzijaD64bfVtk-42" value="Run text detection for expiration date" style="rounded=1;whiteSpace=wrap;html=1;" parent="2b4e8129b02d487f-4" vertex="1">
          <mxGeometry x="1340" y="185" width="120" height="60" as="geometry" />
        </mxCell>
        <mxCell id="wfJeZkwtzijaD64bfVtk-44" value="No" style="edgeStyle=orthogonalEdgeStyle;rounded=0;orthogonalLoop=1;jettySize=auto;html=1;exitX=1;exitY=0.5;exitDx=0;exitDy=0;entryX=0;entryY=0.5;entryDx=0;entryDy=0;" parent="2b4e8129b02d487f-4" source="wfJeZkwtzijaD64bfVtk-43" target="wfJeZkwtzijaD64bfVtk-32" edge="1">
          <mxGeometry relative="1" as="geometry" />
        </mxCell>
        <mxCell id="wfJeZkwtzijaD64bfVtk-45" value="Yes" style="edgeStyle=orthogonalEdgeStyle;rounded=0;orthogonalLoop=1;jettySize=auto;html=1;exitX=0.5;exitY=0;exitDx=0;exitDy=0;entryX=0.5;entryY=0;entryDx=0;entryDy=0;" parent="2b4e8129b02d487f-4" source="wfJeZkwtzijaD64bfVtk-43" target="wfJeZkwtzijaD64bfVtk-42" edge="1">
          <mxGeometry relative="1" as="geometry" />
        </mxCell>
        <mxCell id="wfJeZkwtzijaD64bfVtk-43" value="Item name identified?" style="rhombus;whiteSpace=wrap;html=1;" parent="2b4e8129b02d487f-4" vertex="1">
          <mxGeometry x="720" y="175" width="100" height="80" as="geometry" />
        </mxCell>
        <mxCell id="wfJeZkwtzijaD64bfVtk-50" value="No" style="edgeStyle=orthogonalEdgeStyle;rounded=0;orthogonalLoop=1;jettySize=auto;html=1;exitX=0.5;exitY=1;exitDx=0;exitDy=0;entryX=0.5;entryY=1;entryDx=0;entryDy=0;" parent="2b4e8129b02d487f-4" source="wfJeZkwtzijaD64bfVtk-48" target="wfJeZkwtzijaD64bfVtk-52" edge="1">
          <mxGeometry relative="1" as="geometry">
            <Array as="points">
              <mxPoint x="1640" y="390" />
              <mxPoint x="710" y="390" />
            </Array>
          </mxGeometry>
        </mxCell>
        <mxCell id="wfJeZkwtzijaD64bfVtk-51" value="Yes" style="edgeStyle=orthogonalEdgeStyle;rounded=0;orthogonalLoop=1;jettySize=auto;html=1;exitX=1;exitY=0.5;exitDx=0;exitDy=0;entryX=0;entryY=0.5;entryDx=0;entryDy=0;" parent="2b4e8129b02d487f-4" source="wfJeZkwtzijaD64bfVtk-48" target="wfJeZkwtzijaD64bfVtk-23" edge="1">
          <mxGeometry relative="1" as="geometry" />
        </mxCell>
        <mxCell id="wfJeZkwtzijaD64bfVtk-48" value="Text read makes sense" style="rhombus;whiteSpace=wrap;html=1;" parent="2b4e8129b02d487f-4" vertex="1">
          <mxGeometry x="1530" y="175" width="220" height="80" as="geometry" />
        </mxCell>
        <mxCell id="wfJeZkwtzijaD64bfVtk-53" style="edgeStyle=orthogonalEdgeStyle;rounded=0;orthogonalLoop=1;jettySize=auto;html=1;exitX=0;exitY=0.5;exitDx=0;exitDy=0;entryX=0.5;entryY=1;entryDx=0;entryDy=0;" parent="2b4e8129b02d487f-4" source="wfJeZkwtzijaD64bfVtk-52" target="wfJeZkwtzijaD64bfVtk-36" edge="1">
          <mxGeometry relative="1" as="geometry" />
        </mxCell>
        <mxCell id="wfJeZkwtzijaD64bfVtk-52" value="Delete photo" style="rounded=1;whiteSpace=wrap;html=1;" parent="2b4e8129b02d487f-4" vertex="1">
          <mxGeometry x="650" y="310" width="120" height="60" as="geometry" />
        </mxCell>
        <mxCell id="wfJeZkwtzijaD64bfVtk-58" value="Send FoodItem to display" style="rounded=1;whiteSpace=wrap;html=1;" parent="2b4e8129b02d487f-4" vertex="1">
          <mxGeometry x="2040" y="185" width="120" height="60" as="geometry" />
        </mxCell>
        <mxCell id="wfJeZkwtzijaD64bfVtk-4" style="edgeStyle=orthogonalEdgeStyle;rounded=0;orthogonalLoop=1;jettySize=auto;html=1;exitX=0.5;exitY=1;exitDx=0;exitDy=0;entryX=0.5;entryY=0;entryDx=0;entryDy=0;" parent="2b4e8129b02d487f-3" source="snoJyz_RMj4-58Zv0lQL-22" target="wfJeZkwtzijaD64bfVtk-3" edge="1">
          <mxGeometry relative="1" as="geometry" />
        </mxCell>
        <mxCell id="wfJeZkwtzijaD64bfVtk-26" style="edgeStyle=orthogonalEdgeStyle;rounded=0;orthogonalLoop=1;jettySize=auto;html=1;exitX=0.5;exitY=0;exitDx=0;exitDy=0;entryX=0.5;entryY=1;entryDx=0;entryDy=0;" parent="2b4e8129b02d487f-3" source="wfJeZkwtzijaD64bfVtk-23" target="wfJeZkwtzijaD64bfVtk-24" edge="1">
          <mxGeometry relative="1" as="geometry" />
        </mxCell>
        <mxCell id="L5MZphcRV6BKSnFkt7Z3-50" style="edgeStyle=orthogonalEdgeStyle;rounded=0;orthogonalLoop=1;jettySize=auto;html=1;exitX=1;exitY=0.5;exitDx=0;exitDy=0;entryX=0;entryY=0.5;entryDx=0;entryDy=0;" parent="2b4e8129b02d487f-3" source="L5MZphcRV6BKSnFkt7Z3-40" target="L5MZphcRV6BKSnFkt7Z3-49" edge="1">
          <mxGeometry relative="1" as="geometry" />
        </mxCell>
        <mxCell id="L5MZphcRV6BKSnFkt7Z3-40" value="Wait for decision from display" style="rounded=1;whiteSpace=wrap;html=1;" parent="2b4e8129b02d487f-3" vertex="1">
          <mxGeometry x="720" y="340" width="120" height="60" as="geometry" />
        </mxCell>
        <mxCell id="L5MZphcRV6BKSnFkt7Z3-51" style="edgeStyle=orthogonalEdgeStyle;rounded=0;orthogonalLoop=1;jettySize=auto;html=1;exitX=0.5;exitY=1;exitDx=0;exitDy=0;entryX=0.5;entryY=1;entryDx=0;entryDy=0;" parent="2b4e8129b02d487f-3" source="L5MZphcRV6BKSnFkt7Z3-49" target="L5MZphcRV6BKSnFkt7Z3-9" edge="1">
          <mxGeometry relative="1" as="geometry">
            <Array as="points">
              <mxPoint x="960" y="440" />
              <mxPoint x="670" y="440" />
              <mxPoint x="670" y="650" />
              <mxPoint x="485" y="650" />
            </Array>
          </mxGeometry>
        </mxCell>
        <mxCell id="L5MZphcRV6BKSnFkt7Z3-60" value="Yes" style="edgeLabel;html=1;align=center;verticalAlign=middle;resizable=0;points=[];" parent="L5MZphcRV6BKSnFkt7Z3-51" vertex="1" connectable="0">
          <mxGeometry x="-0.7509" y="1" relative="1" as="geometry">
            <mxPoint as="offset" />
          </mxGeometry>
        </mxCell>
        <mxCell id="L5MZphcRV6BKSnFkt7Z3-55" value="No" style="edgeStyle=orthogonalEdgeStyle;rounded=0;orthogonalLoop=1;jettySize=auto;html=1;exitX=1;exitY=0.5;exitDx=0;exitDy=0;entryX=0;entryY=0.5;entryDx=0;entryDy=0;" parent="2b4e8129b02d487f-3" source="L5MZphcRV6BKSnFkt7Z3-49" target="L5MZphcRV6BKSnFkt7Z3-54" edge="1">
          <mxGeometry relative="1" as="geometry" />
        </mxCell>
        <mxCell id="wCeL-XLaS5dmGQZmUb4--40" value="" style="edgeStyle=orthogonalEdgeStyle;rounded=0;orthogonalLoop=1;jettySize=auto;html=1;exitX=0.5;exitY=0;exitDx=0;exitDy=0;entryX=0.5;entryY=1;entryDx=0;entryDy=0;" edge="1" parent="2b4e8129b02d487f-3" source="L5MZphcRV6BKSnFkt7Z3-49" target="wCeL-XLaS5dmGQZmUb4--34">
          <mxGeometry relative="1" as="geometry" />
        </mxCell>
        <mxCell id="wCeL-XLaS5dmGQZmUb4--43" value="Yes" style="edgeLabel;html=1;align=center;verticalAlign=middle;resizable=0;points=[];" vertex="1" connectable="0" parent="wCeL-XLaS5dmGQZmUb4--40">
          <mxGeometry x="-0.7663" y="1" relative="1" as="geometry">
            <mxPoint as="offset" />
          </mxGeometry>
        </mxCell>
        <mxCell id="L5MZphcRV6BKSnFkt7Z3-49" value="Retry?" style="rhombus;whiteSpace=wrap;html=1;" parent="2b4e8129b02d487f-3" vertex="1">
          <mxGeometry x="920" y="330" width="80" height="80" as="geometry" />
        </mxCell>
        <mxCell id="L5MZphcRV6BKSnFkt7Z3-56" style="edgeStyle=orthogonalEdgeStyle;rounded=0;orthogonalLoop=1;jettySize=auto;html=1;exitX=0.5;exitY=1;exitDx=0;exitDy=0;entryX=0;entryY=0.5;entryDx=0;entryDy=0;" parent="2b4e8129b02d487f-3" source="L5MZphcRV6BKSnFkt7Z3-54" target="snoJyz_RMj4-58Zv0lQL-21" edge="1">
          <mxGeometry relative="1" as="geometry">
            <Array as="points">
              <mxPoint x="1095" y="460" />
              <mxPoint x="720" y="460" />
              <mxPoint x="720" y="650" />
            </Array>
          </mxGeometry>
        </mxCell>
        <mxCell id="L5MZphcRV6BKSnFkt7Z3-57" value="Yes" style="edgeLabel;html=1;align=center;verticalAlign=middle;resizable=0;points=[];" parent="L5MZphcRV6BKSnFkt7Z3-56" vertex="1" connectable="0">
          <mxGeometry x="-0.9061" relative="1" as="geometry">
            <mxPoint as="offset" />
          </mxGeometry>
        </mxCell>
        <mxCell id="L5MZphcRV6BKSnFkt7Z3-59" value="No" style="edgeStyle=orthogonalEdgeStyle;rounded=0;orthogonalLoop=1;jettySize=auto;html=1;exitX=1;exitY=0.5;exitDx=0;exitDy=0;entryX=0;entryY=0.5;entryDx=0;entryDy=0;" parent="2b4e8129b02d487f-3" source="L5MZphcRV6BKSnFkt7Z3-54" target="L5MZphcRV6BKSnFkt7Z3-58" edge="1">
          <mxGeometry relative="1" as="geometry" />
        </mxCell>
        <mxCell id="wCeL-XLaS5dmGQZmUb4--41" style="edgeStyle=orthogonalEdgeStyle;rounded=0;orthogonalLoop=1;jettySize=auto;html=1;exitX=0.5;exitY=0;exitDx=0;exitDy=0;entryX=0.5;entryY=1;entryDx=0;entryDy=0;" edge="1" parent="2b4e8129b02d487f-3" source="L5MZphcRV6BKSnFkt7Z3-54" target="wCeL-XLaS5dmGQZmUb4--34">
          <mxGeometry relative="1" as="geometry">
            <mxPoint x="1350" y="160" as="targetPoint" />
          </mxGeometry>
        </mxCell>
        <mxCell id="wCeL-XLaS5dmGQZmUb4--44" value="Yes" style="edgeLabel;html=1;align=center;verticalAlign=middle;resizable=0;points=[];" vertex="1" connectable="0" parent="wCeL-XLaS5dmGQZmUb4--41">
          <mxGeometry x="-0.7049" relative="1" as="geometry">
            <mxPoint as="offset" />
          </mxGeometry>
        </mxCell>
        <mxCell id="L5MZphcRV6BKSnFkt7Z3-54" value="Override?" style="rhombus;whiteSpace=wrap;html=1;" parent="2b4e8129b02d487f-3" vertex="1">
          <mxGeometry x="1055" y="330" width="80" height="80" as="geometry" />
        </mxCell>
        <mxCell id="L5MZphcRV6BKSnFkt7Z3-61" style="edgeStyle=orthogonalEdgeStyle;rounded=0;orthogonalLoop=1;jettySize=auto;html=1;exitX=0.5;exitY=1;exitDx=0;exitDy=0;entryX=1;entryY=1;entryDx=0;entryDy=0;" parent="2b4e8129b02d487f-3" source="L5MZphcRV6BKSnFkt7Z3-58" target="L5MZphcRV6BKSnFkt7Z3-4" edge="1">
          <mxGeometry relative="1" as="geometry">
            <Array as="points">
              <mxPoint x="1230" y="520" />
              <mxPoint x="750" y="520" />
              <mxPoint x="750" y="730" />
              <mxPoint x="295" y="730" />
            </Array>
          </mxGeometry>
        </mxCell>
        <mxCell id="L5MZphcRV6BKSnFkt7Z3-62" value="Yes" style="edgeLabel;html=1;align=center;verticalAlign=middle;resizable=0;points=[];" parent="L5MZphcRV6BKSnFkt7Z3-61" vertex="1" connectable="0">
          <mxGeometry x="-0.9431" relative="1" as="geometry">
            <mxPoint as="offset" />
          </mxGeometry>
        </mxCell>
        <mxCell id="wCeL-XLaS5dmGQZmUb4--42" style="edgeStyle=orthogonalEdgeStyle;rounded=0;orthogonalLoop=1;jettySize=auto;html=1;exitX=0.5;exitY=0;exitDx=0;exitDy=0;entryX=0.5;entryY=1;entryDx=0;entryDy=0;" edge="1" parent="2b4e8129b02d487f-3" source="L5MZphcRV6BKSnFkt7Z3-58" target="wCeL-XLaS5dmGQZmUb4--34">
          <mxGeometry relative="1" as="geometry" />
        </mxCell>
        <mxCell id="wCeL-XLaS5dmGQZmUb4--45" value="Yes" style="edgeLabel;html=1;align=center;verticalAlign=middle;resizable=0;points=[];" vertex="1" connectable="0" parent="wCeL-XLaS5dmGQZmUb4--42">
          <mxGeometry x="-0.5368" y="-1" relative="1" as="geometry">
            <mxPoint as="offset" />
          </mxGeometry>
        </mxCell>
        <mxCell id="L5MZphcRV6BKSnFkt7Z3-58" value="Cancel?" style="rhombus;whiteSpace=wrap;html=1;" parent="2b4e8129b02d487f-3" vertex="1">
          <mxGeometry x="1190" y="330" width="80" height="80" as="geometry" />
        </mxCell>
        <mxCell id="wCeL-XLaS5dmGQZmUb4--34" value="AFFIRMATIVE" style="shape=parallelogram;html=1;strokeWidth=2;perimeter=parallelogramPerimeter;whiteSpace=wrap;rounded=1;arcSize=12;size=0.23;" vertex="1" parent="2b4e8129b02d487f-3">
          <mxGeometry x="1180" y="20" width="130" height="60" as="geometry" />
        </mxCell>
        <mxCell id="L5MZphcRV6BKSnFkt7Z3-27" value="AFFIRMATIVE" style="shape=parallelogram;html=1;strokeWidth=2;perimeter=parallelogramPerimeter;whiteSpace=wrap;rounded=1;arcSize=12;size=0.23;" parent="2b4e8129b02d487f-3" vertex="1">
          <mxGeometry x="500" y="20" width="150" height="60" as="geometry" />
        </mxCell>
        <mxCell id="L5MZphcRV6BKSnFkt7Z3-28" value="Yes" style="edgeStyle=orthogonalEdgeStyle;rounded=0;orthogonalLoop=1;jettySize=auto;html=1;exitX=0.5;exitY=0;exitDx=0;exitDy=0;entryX=0.5;entryY=1;entryDx=0;entryDy=0;" parent="2b4e8129b02d487f-3" source="L5MZphcRV6BKSnFkt7Z3-9" target="L5MZphcRV6BKSnFkt7Z3-27" edge="1">
          <mxGeometry relative="1" as="geometry" />
        </mxCell>
        <mxCell id="L5MZphcRV6BKSnFkt7Z3-24" value="ZERO_WEIGHT" style="shape=parallelogram;html=1;strokeWidth=2;perimeter=parallelogramPerimeter;whiteSpace=wrap;rounded=1;arcSize=12;size=0.23;" parent="2b4e8129b02d487f-3" vertex="1">
          <mxGeometry x="330" y="20" width="140" height="60" as="geometry" />
        </mxCell>
        <mxCell id="L5MZphcRV6BKSnFkt7Z3-25" value="No" style="edgeStyle=orthogonalEdgeStyle;rounded=0;orthogonalLoop=1;jettySize=auto;html=1;exitX=0;exitY=0;exitDx=0;exitDy=0;entryX=0.5;entryY=1;entryDx=0;entryDy=0;" parent="2b4e8129b02d487f-3" source="L5MZphcRV6BKSnFkt7Z3-9" target="L5MZphcRV6BKSnFkt7Z3-24" edge="1">
          <mxGeometry relative="1" as="geometry" />
        </mxCell>
        <mxCell id="wfJeZkwtzijaD64bfVtk-56" value="&lt;div&gt;Identified FoodItem.&amp;nbsp;&lt;/div&gt;&lt;div&gt;Everything set, quantity = 1&lt;/div&gt;" style="shape=parallelogram;html=1;strokeWidth=2;perimeter=parallelogramPerimeter;whiteSpace=wrap;rounded=1;arcSize=12;size=0.23;" parent="2b4e8129b02d487f-3" vertex="1">
          <mxGeometry x="1920" y="20" width="230" height="60" as="geometry" />
        </mxCell>
        <mxCell id="wfJeZkwtzijaD64bfVtk-60" style="edgeStyle=orthogonalEdgeStyle;rounded=0;orthogonalLoop=1;jettySize=auto;html=1;exitX=0.5;exitY=0;exitDx=0;exitDy=0;entryX=0.5;entryY=1;entryDx=0;entryDy=0;" parent="2b4e8129b02d487f-3" source="wfJeZkwtzijaD64bfVtk-58" target="wfJeZkwtzijaD64bfVtk-56" edge="1">
          <mxGeometry relative="1" as="geometry" />
        </mxCell>
        <mxCell id="wCeL-XLaS5dmGQZmUb4--50" style="edgeStyle=orthogonalEdgeStyle;rounded=0;orthogonalLoop=1;jettySize=auto;html=1;exitX=0.5;exitY=0;exitDx=0;exitDy=0;entryX=0.5;entryY=1;entryDx=0;entryDy=0;entryPerimeter=0;" edge="1" parent="2b4e8129b02d487f-1" source="wCeL-XLaS5dmGQZmUb4--34" target="wCeL-XLaS5dmGQZmUb4--49">
          <mxGeometry relative="1" as="geometry" />
        </mxCell>
        <mxCell id="L5MZphcRV6BKSnFkt7Z3-29" style="edgeStyle=orthogonalEdgeStyle;rounded=0;orthogonalLoop=1;jettySize=auto;html=1;exitX=0.5;exitY=0;exitDx=0;exitDy=0;entryX=0.75;entryY=1;entryDx=0;entryDy=0;" parent="2b4e8129b02d487f-1" source="L5MZphcRV6BKSnFkt7Z3-27" target="L5MZphcRV6BKSnFkt7Z3-21" edge="1">
          <mxGeometry relative="1" as="geometry" />
        </mxCell>
        <mxCell id="L5MZphcRV6BKSnFkt7Z3-26" style="edgeStyle=orthogonalEdgeStyle;rounded=0;orthogonalLoop=1;jettySize=auto;html=1;exitX=0.5;exitY=0;exitDx=0;exitDy=0;entryX=0.25;entryY=1;entryDx=0;entryDy=0;" parent="2b4e8129b02d487f-1" source="L5MZphcRV6BKSnFkt7Z3-24" target="L5MZphcRV6BKSnFkt7Z3-21" edge="1">
          <mxGeometry relative="1" as="geometry" />
        </mxCell>
        <mxCell id="L5MZphcRV6BKSnFkt7Z3-36" style="edgeStyle=orthogonalEdgeStyle;rounded=0;orthogonalLoop=1;jettySize=auto;html=1;exitX=0.5;exitY=0;exitDx=0;exitDy=0;entryX=0.5;entryY=1;entryDx=0;entryDy=0;" parent="2b4e8129b02d487f-1" source="wfJeZkwtzijaD64bfVtk-56" target="L5MZphcRV6BKSnFkt7Z3-34" edge="1">
          <mxGeometry relative="1" as="geometry" />
        </mxCell>
        <mxCell id="wCeL-XLaS5dmGQZmUb4--53" style="edgeStyle=orthogonalEdgeStyle;rounded=0;orthogonalLoop=1;jettySize=auto;html=1;exitX=0.5;exitY=1;exitDx=0;exitDy=0;entryX=0.5;entryY=0;entryDx=0;entryDy=0;" edge="1" parent="2b4e8129b02d487f-1" source="wCeL-XLaS5dmGQZmUb4--51" target="L5MZphcRV6BKSnFkt7Z3-18">
          <mxGeometry relative="1" as="geometry" />
        </mxCell>
        <mxCell id="wCeL-XLaS5dmGQZmUb4--61" style="edgeStyle=orthogonalEdgeStyle;rounded=0;orthogonalLoop=1;jettySize=auto;html=1;exitX=0.5;exitY=0;exitDx=0;exitDy=0;entryX=0.5;entryY=1;entryDx=0;entryDy=0;" edge="1" parent="2b4e8129b02d487f-1" source="wCeL-XLaS5dmGQZmUb4--3" target="wCeL-XLaS5dmGQZmUb4--54">
          <mxGeometry relative="1" as="geometry" />
        </mxCell>
        <mxCell id="wCeL-XLaS5dmGQZmUb4--63" style="edgeStyle=orthogonalEdgeStyle;rounded=0;orthogonalLoop=1;jettySize=auto;html=1;exitX=0.5;exitY=0;exitDx=0;exitDy=0;entryX=0.5;entryY=1;entryDx=0;entryDy=0;" edge="1" parent="2b4e8129b02d487f-1" source="wCeL-XLaS5dmGQZmUb4--59" target="wCeL-XLaS5dmGQZmUb4--54">
          <mxGeometry relative="1" as="geometry" />
        </mxCell>
        <mxCell id="wCeL-XLaS5dmGQZmUb4--84" style="edgeStyle=orthogonalEdgeStyle;rounded=0;orthogonalLoop=1;jettySize=auto;html=1;exitX=0.5;exitY=1;exitDx=0;exitDy=0;entryX=0.5;entryY=0;entryDx=0;entryDy=0;" edge="1" parent="2b4e8129b02d487f-1" source="wCeL-XLaS5dmGQZmUb4--78" target="L5MZphcRV6BKSnFkt7Z3-44">
          <mxGeometry relative="1" as="geometry">
            <Array as="points">
              <mxPoint x="1180" y="690" />
              <mxPoint x="1050" y="690" />
            </Array>
          </mxGeometry>
        </mxCell>
        <mxCell id="wCeL-XLaS5dmGQZmUb4--89" style="edgeStyle=orthogonalEdgeStyle;rounded=0;orthogonalLoop=1;jettySize=auto;html=1;exitX=0.5;exitY=0;exitDx=0;exitDy=0;entryX=0.5;entryY=1;entryDx=0;entryDy=0;entryPerimeter=0;" edge="1" parent="2b4e8129b02d487f-1" source="wCeL-XLaS5dmGQZmUb4--87" target="wCeL-XLaS5dmGQZmUb4--83">
          <mxGeometry relative="1" as="geometry" />
        </mxCell>
      </root>
    </mxGraphModel>
  </diagram>
</mxfile>
